# xmcd
#
# Track frame offsets:
#	183
#	10718
#	21830
#	33068
#	43958
#	54953
#	67570
#	80283
#	95820
#	105770
#	118733
#	130468
#	143915
#	157158
#	169375
#	183363
#	196493
#	209800
#	220088
#	233073
#
# Disc length: 3282 seconds
#
# Revision: 11
# Processed by: cddbd v1.5.2PL0 Copyright (c) Steve Scherf et al.
# Submitted via: audiograbber 1.83.01
#
DISCID=140cd014
DTITLE=Howlin' Wolf - Moanin' At Midnight
DYEAR=1988
DGENRE=Blues
TTITLE0=Shake For Me
TTITLE1=The Red Rooster
TTITLE2=You'll Be Mine
TTITLE3=Who's Been Talkin'
TTITLE4=Wang-Dang-Doodle
TTITLE5=Little Baby
TTITLE6=Spoonful
TTITLE7=Goin' Down Slow
TTITLE8=Down In The Bottom
TTITLE9=Back Door Man
TTITLE10=Howlin' For My Baby
TTITLE11=Tell Me
TTITLE12=Moanin' At Midnight
TTITLE13=How Many More Years
TTITLE14=Smokestack Lightning
TTITLE15=Baby How Long
TTITLE16=No Place To Go
TTITLE17=All Night Boogie
TTITLE18=Evil
TTITLE19=I'm Leaving You
EXTD=Mur13\n
EXTT0=
EXTT1=
EXTT2=
EXTT3=
EXTT4=
EXTT5=
EXTT6=
EXTT7=
EXTT8=
EXTT9=
EXTT10=
EXTT11=
EXTT12=
EXTT13=
EXTT14=
EXTT15=
EXTT16=
EXTT17=
EXTT18=
EXTT19=
PLAYORDER=
